<svg width="409" height="266" viewBox="0 0 409 266" fill="none" xmlns="http://www.w3.org/2000/svg">
<path d="M102.611 264.193H29.9888C29.9888 264.193 41.1989 256.395 50.9468 248.597C60.6947 240.798 65.5687 232.025 65.5687 232.025C65.5687 232.025 68.9805 228.126 75.3166 215.454C81.6527 202.782 81.6527 196.933 81.6527 196.933C81.6527 196.933 65.8025 199.964 55.8208 198.395C50.7579 197.6 43.1485 194.983 43.1485 194.983C43.1485 194.983 35.3502 191.572 31.9384 189.622C28.5266 187.672 24.1401 183.773 20.7283 180.361C17.3166 176.95 14.1588 173.69 10.9804 168.664C7.83969 163.698 6.10646 158.429 4.64428 155.017C3.18209 151.605 1.84829 145.925 1.23251 139.908C0.709361 134.795 1.23251 126.748 1.23251 126.748C1.23251 126.748 2.2073 117 3.66949 112.614C5.13167 108.227 6.59386 103.84 9.51823 98.479C12.4426 93.1177 14.8796 89.822 20.7283 83.4278C26.5771 77.0337 38.7619 65.8236 38.7619 65.8236L61.1821 47.3025L83.1149 29.2689L88.9637 23.4202C88.9637 23.4202 92.3754 20.0084 94.325 17.084C96.2746 14.1597 97.2494 11.7227 98.2242 8.79832C99.199 5.87395 100.174 1 100.174 1H103.547C101.149 14.6471 97.8343 21.3731 96.2746 24.8824C94.7149 28.3916 90.793 36.0925 85.5519 41.9412C75.804 52.8193 52.409 74.5967 38.7619 93.6051C25.1149 112.614 27.5519 133.084 28.0392 136.496C28.5266 139.908 34.3754 170.126 62.6443 170.126C96.2746 167.689 99.199 109.689 100.174 95.0673H103.547L102.611 264.193Z" fill="black" stroke="black" stroke-width="2"/>
<path d="M108.079 264.193H180.701C180.701 264.193 169.491 256.395 159.743 248.597C149.995 240.798 145.121 232.025 145.121 232.025C145.121 232.025 141.709 228.126 135.373 215.454C129.037 202.782 129.037 196.933 129.037 196.933C129.037 196.933 144.887 199.964 154.869 198.395C159.932 197.6 167.541 194.983 167.541 194.983C167.541 194.983 175.339 191.572 178.751 189.622C182.163 187.672 186.549 183.773 189.961 180.361C193.373 176.95 196.531 173.69 199.709 168.664C202.85 163.698 204.583 158.429 206.045 155.017C207.507 151.605 208.841 145.925 209.457 139.908C209.98 134.795 209.457 126.748 209.457 126.748C209.457 126.748 208.482 117 207.02 112.614C205.558 108.227 204.096 103.84 201.171 98.479C198.247 93.1177 195.81 89.822 189.961 83.4278C184.112 77.0337 171.928 65.8236 171.928 65.8236L149.507 47.3025L127.575 29.2689L121.726 23.4202C121.726 23.4202 118.314 20.0084 116.364 17.084C114.415 14.1597 113.44 11.7227 112.465 8.79832C111.49 5.87395 110.516 1 110.516 1H107.143C109.541 14.6471 112.855 21.3731 114.415 24.8824C115.975 28.3916 119.896 36.0925 125.138 41.9412C134.885 52.8193 158.28 74.5967 171.928 93.6051C185.575 112.614 183.138 133.084 182.65 136.496C182.163 139.908 176.314 170.126 148.045 170.126C114.415 167.689 111.49 109.689 110.516 95.0673H107.143L108.079 264.193Z" fill="#A81E22" stroke="black" stroke-width="2"/>
<path d="M214.649 106.443C216.748 106.559 218.846 106.676 220.945 106.793C223.043 106.909 224.705 106.997 225.929 107.055C227.153 107.113 228.29 107.142 229.339 107.142C230.213 107.142 231.233 107.113 232.399 107.055C233.565 106.997 235.139 106.909 237.121 106.793C239.161 106.676 241.114 106.559 242.979 106.443C244.028 106.793 244.874 107.696 245.515 109.153C245.457 109.62 245.34 110.319 245.165 111.252C245.049 112.126 244.932 113.205 244.815 114.487C244.757 115.711 244.728 117.227 244.728 119.034L244.553 160.567C244.553 171.059 247.73 176.305 254.084 176.305C259.971 176.305 268.336 172.429 279.178 164.676C279.178 147.305 278.916 132.091 278.391 119.034C278.391 117.985 278.187 117.052 277.779 116.236C277.371 115.42 276.73 114.72 275.856 114.137C275.04 113.554 274.282 113.088 273.582 112.738C272.941 112.33 271.979 111.981 270.697 111.689C269.414 111.339 268.511 111.135 267.986 111.077C267.462 110.96 266.587 110.786 265.363 110.552C265.13 109.62 265.013 108.92 265.013 108.454C265.013 108.046 265.13 107.376 265.363 106.443C267.403 106.559 269.473 106.676 271.571 106.793C273.728 106.909 275.419 106.997 276.643 107.055C277.867 107.113 279.003 107.142 280.053 107.142C280.927 107.142 281.947 107.113 283.113 107.055C284.279 106.997 285.853 106.909 287.835 106.793C289.875 106.676 291.828 106.559 293.693 106.443C293.984 106.618 294.218 106.793 294.392 106.967C294.626 107.084 294.801 107.259 294.917 107.492C295.092 107.667 295.209 107.813 295.267 107.929C295.325 107.988 295.413 108.192 295.529 108.541C295.646 108.833 295.733 109.037 295.791 109.153C295.325 112.301 295.092 115.595 295.092 119.034C294.742 127.603 294.567 134.569 294.567 139.931C294.567 142.729 294.626 147.422 294.742 154.009C294.859 160.596 294.917 166.367 294.917 171.322C298.24 173.245 303.836 174.44 311.705 174.906C311.997 176.364 312.142 177.122 312.142 177.18C312.142 177.53 311.997 178.142 311.705 179.016C300.688 180.065 290.837 182.455 282.151 186.186C280.636 185.545 279.645 184.758 279.178 183.825V170.185C273.349 175.198 267.841 179.191 262.653 182.164C257.523 185.078 252.335 186.536 247.089 186.536C240.444 186.536 235.722 184.67 232.924 180.94C230.184 177.209 228.756 171.351 228.639 163.365L227.94 119.034C227.823 117.693 227.561 116.702 227.153 116.061C226.803 115.361 226.191 114.72 225.317 114.137C224.501 113.554 223.743 113.088 223.043 112.738C222.344 112.33 221.353 111.981 220.071 111.689C218.788 111.339 217.885 111.135 217.36 111.077C216.835 110.96 215.932 110.786 214.649 110.552C214.416 109.62 214.3 108.92 214.3 108.454C214.3 108.046 214.416 107.376 214.649 106.443ZM306.253 58.2648C317.386 57.2155 327.238 54.8255 335.806 51.0949C337.439 51.7944 338.459 52.5813 338.867 53.4557V117.722C347.902 108.92 357.025 104.519 366.235 104.519C375.212 104.519 382.527 107.871 388.182 114.575C393.836 121.22 396.663 130.226 396.663 141.593C396.663 145.848 396.197 150.045 395.264 154.184C394.331 158.264 392.787 162.286 390.63 166.25C388.473 170.156 385.821 173.595 382.673 176.568C379.525 179.541 375.532 181.96 370.694 183.825C365.856 185.632 360.493 186.536 354.606 186.536C348.835 186.536 343.209 185.574 337.73 183.65C332.251 181.727 327.383 178.987 323.128 175.431C323.245 169.66 323.303 155.612 323.303 133.286C323.303 124.018 323.274 111.398 323.215 95.4257C323.157 79.4538 323.128 69.6316 323.128 65.9593C319.864 64.0356 314.238 62.8407 306.253 62.3743C306.019 61.4417 305.903 60.7422 305.903 60.2758C305.903 59.8678 306.019 59.1974 306.253 58.2648ZM357.841 115.974C353.935 115.974 350.525 116.702 347.611 118.159C344.754 119.558 341.84 121.686 338.867 124.542C338.867 143.429 338.983 158.701 339.216 170.36C343.239 177.296 349.388 180.765 357.666 180.765C359.415 180.765 361.163 180.473 362.912 179.89C364.719 179.308 366.614 178.2 368.596 176.568C370.577 174.936 372.297 172.866 373.754 170.36C375.27 167.853 376.523 164.472 377.514 160.217C378.505 155.962 379.001 151.123 379.001 145.702C379.001 140.106 378.272 135.122 376.815 130.751C375.357 126.379 372.997 122.823 369.732 120.083C366.468 117.343 362.504 115.974 357.841 115.974Z" fill="#A81E22"/>
<path d="M214.649 106.443L214.733 104.945L213.495 104.876L213.194 106.079L214.649 106.443ZM237.121 106.793L237.035 105.295L237.033 105.295L237.121 106.793ZM242.979 106.443L243.454 105.02L243.177 104.928L242.886 104.946L242.979 106.443ZM245.515 109.153L247.003 109.339L247.055 108.928L246.888 108.549L245.515 109.153ZM245.165 111.252L243.691 110.975L243.684 111.014L243.678 111.054L245.165 111.252ZM244.815 114.487L243.322 114.351L243.319 114.383L243.317 114.416L244.815 114.487ZM244.728 119.034L246.228 119.04V119.034H244.728ZM244.553 160.567L243.053 160.56V160.567H244.553ZM279.178 164.676L280.051 165.896L280.678 165.448V164.676H279.178ZM278.391 119.034H276.891V119.064L276.893 119.094L278.391 119.034ZM275.856 114.137L274.984 115.358L275.004 115.372L275.024 115.385L275.856 114.137ZM273.582 112.738L272.777 114.004L272.842 114.045L272.912 114.08L273.582 112.738ZM270.697 111.689L270.302 113.136L270.333 113.145L270.364 113.152L270.697 111.689ZM267.986 111.077L267.661 112.541L267.74 112.559L267.821 112.568L267.986 111.077ZM265.363 110.552L263.908 110.916L264.141 111.847L265.083 112.026L265.363 110.552ZM265.363 106.443L265.449 104.945L264.209 104.874L263.908 106.079L265.363 106.443ZM271.571 106.793L271.488 108.29L271.49 108.29L271.571 106.793ZM287.835 106.793L287.749 105.295L287.747 105.295L287.835 106.793ZM293.693 106.443L294.465 105.157L294.065 104.917L293.599 104.946L293.693 106.443ZM294.392 106.967L293.332 108.028L293.504 108.2L293.722 108.309L294.392 106.967ZM294.917 107.492L293.575 108.163L293.684 108.381L293.856 108.553L294.917 107.492ZM295.267 107.929L293.925 108.6L294.034 108.818L294.206 108.99L295.267 107.929ZM295.529 108.541L294.106 109.016L294.12 109.058L294.136 109.098L295.529 108.541ZM295.791 109.153L297.275 109.373L297.345 108.906L297.133 108.483L295.791 109.153ZM295.092 119.034L296.591 119.095L296.592 119.064V119.034H295.092ZM294.917 171.322H293.417V172.186L294.166 172.62L294.917 171.322ZM311.705 174.906L313.176 174.612L312.949 173.478L311.794 173.409L311.705 174.906ZM311.705 179.016L311.847 180.509L312.819 180.417L313.128 179.49L311.705 179.016ZM282.151 186.186L281.567 187.567L282.156 187.817L282.743 187.564L282.151 186.186ZM279.178 183.825H277.678V184.179L277.837 184.496L279.178 183.825ZM279.178 170.185H280.678V166.916L278.2 169.048L279.178 170.185ZM262.653 182.164L263.394 183.468L263.398 183.465L262.653 182.164ZM232.924 180.94L231.715 181.828L231.719 181.834L231.724 181.84L232.924 180.94ZM228.639 163.365L230.139 163.343L230.139 163.341L228.639 163.365ZM227.94 119.034L229.44 119.01L229.439 118.957L229.434 118.904L227.94 119.034ZM227.153 116.061L225.811 116.732L225.846 116.801L225.888 116.866L227.153 116.061ZM225.317 114.137L224.445 115.358L224.465 115.372L224.485 115.385L225.317 114.137ZM223.043 112.738L222.288 114.034L222.329 114.058L222.373 114.08L223.043 112.738ZM220.071 111.689L219.676 113.136L219.707 113.145L219.738 113.152L220.071 111.689ZM217.36 111.077L217.035 112.541L217.114 112.559L217.194 112.568L217.36 111.077ZM214.649 110.552L213.194 110.916L213.429 111.855L214.381 112.028L214.649 110.552ZM214.566 107.941C214.861 107.957 215.058 107.968 215.353 107.984C215.648 108.001 215.845 108.012 216.14 108.028C216.435 108.044 216.632 108.055 216.927 108.072C217.221 108.088 217.42 108.099 217.714 108.115C217.746 108.117 217.78 108.119 217.812 108.121C217.845 108.123 217.879 108.125 217.911 108.126C217.943 108.128 217.977 108.13 218.009 108.132C218.041 108.134 218.075 108.135 218.107 108.137C218.14 108.139 218.174 108.141 218.206 108.143C218.238 108.145 218.272 108.146 218.304 108.148C218.336 108.15 218.37 108.152 218.403 108.154C218.435 108.155 218.469 108.157 218.501 108.159C218.533 108.161 218.567 108.163 218.599 108.165C218.631 108.166 218.665 108.168 218.698 108.17C218.73 108.172 218.764 108.174 218.796 108.176C218.828 108.177 218.862 108.179 218.894 108.181C218.927 108.183 218.961 108.185 218.993 108.186C219.025 108.188 219.059 108.19 219.091 108.192C219.123 108.194 219.157 108.196 219.189 108.197C219.222 108.199 219.256 108.201 219.288 108.203C219.32 108.205 219.354 108.207 219.386 108.208C219.418 108.21 219.452 108.212 219.485 108.214C219.517 108.216 219.551 108.217 219.583 108.219C219.615 108.221 219.649 108.223 219.681 108.225C219.713 108.227 219.747 108.228 219.78 108.23C219.812 108.232 219.846 108.234 219.878 108.236C219.91 108.237 219.944 108.239 219.976 108.241C220.009 108.243 220.043 108.245 220.075 108.247C220.107 108.248 220.141 108.25 220.173 108.252C220.205 108.254 220.239 108.256 220.272 108.258C220.304 108.259 220.338 108.261 220.37 108.263C220.402 108.265 220.436 108.267 220.468 108.268C220.5 108.27 220.534 108.272 220.567 108.274C220.599 108.276 220.633 108.278 220.665 108.279C220.697 108.281 220.731 108.283 220.763 108.285C220.796 108.287 220.83 108.289 220.862 108.29L221.028 105.295C220.734 105.279 220.535 105.268 220.241 105.251C219.947 105.235 219.748 105.224 219.454 105.207C219.16 105.191 218.961 105.18 218.667 105.164C218.373 105.147 218.174 105.136 217.88 105.12C217.848 105.118 217.814 105.116 217.782 105.115C217.75 105.113 217.716 105.111 217.684 105.109C217.651 105.107 217.617 105.105 217.585 105.104C217.553 105.102 217.519 105.1 217.487 105.098C217.455 105.096 217.421 105.095 217.389 105.093C217.356 105.091 217.322 105.089 217.29 105.087C217.258 105.085 217.224 105.084 217.192 105.082C217.16 105.08 217.126 105.078 217.093 105.076C217.061 105.075 217.027 105.073 216.995 105.071C216.963 105.069 216.929 105.067 216.897 105.065C216.865 105.064 216.831 105.062 216.798 105.06C216.766 105.058 216.732 105.056 216.7 105.054C216.668 105.053 216.634 105.051 216.602 105.049C216.569 105.047 216.535 105.045 216.503 105.044C216.471 105.042 216.437 105.04 216.405 105.038C216.373 105.036 216.339 105.034 216.306 105.033C216.274 105.031 216.24 105.029 216.208 105.027C216.176 105.025 216.142 105.023 216.11 105.022C216.078 105.02 216.044 105.018 216.011 105.016C215.979 105.014 215.945 105.013 215.913 105.011C215.881 105.009 215.847 105.007 215.815 105.005C215.782 105.003 215.748 105.002 215.716 105C215.684 104.998 215.65 104.996 215.618 104.994C215.586 104.993 215.552 104.991 215.52 104.989C215.487 104.987 215.453 104.985 215.421 104.983C215.389 104.982 215.355 104.98 215.323 104.978C215.291 104.976 215.257 104.974 215.224 104.972C215.192 104.971 215.158 104.969 215.126 104.967C215.094 104.965 215.06 104.963 215.028 104.962C214.996 104.96 214.962 104.958 214.929 104.956C214.897 104.954 214.863 104.952 214.831 104.951C214.799 104.949 214.765 104.947 214.733 104.945L214.566 107.941ZM220.862 108.29C222.962 108.407 224.628 108.495 225.858 108.553L226 105.557C224.782 105.499 223.125 105.411 221.028 105.295L220.862 108.29ZM225.858 108.553C227.102 108.612 228.262 108.642 229.339 108.642V105.642C228.317 105.642 227.204 105.614 226 105.557L225.858 108.553ZM229.339 108.642C230.245 108.642 231.291 108.612 232.474 108.553L232.324 105.557C231.176 105.614 230.182 105.642 229.339 105.642V108.642ZM232.474 108.553C233.646 108.494 235.225 108.407 237.209 108.29L237.033 105.295C235.053 105.412 233.484 105.499 232.324 105.557L232.474 108.553ZM237.206 108.29C239.249 108.173 241.205 108.057 243.073 107.94L242.886 104.946C241.023 105.062 239.073 105.179 237.035 105.295L237.206 108.29ZM242.505 107.866C243.002 108.032 243.595 108.514 244.142 109.758L246.888 108.549C246.153 106.878 245.055 105.554 243.454 105.02L242.505 107.866ZM244.026 108.967C243.974 109.386 243.865 110.049 243.691 110.975L246.639 111.528C246.816 110.589 246.939 109.853 247.003 109.339L244.026 108.967ZM243.678 111.054C243.558 111.956 243.439 113.057 243.322 114.351L246.309 114.623C246.425 113.353 246.539 112.297 246.652 111.45L243.678 111.054ZM243.317 114.416C243.257 115.672 243.228 117.213 243.228 119.034H246.228C246.228 117.241 246.257 115.751 246.314 114.558L243.317 114.416ZM243.228 119.028L243.053 160.56L246.053 160.573L246.228 119.04L243.228 119.028ZM243.053 160.567C243.053 165.915 243.854 170.178 245.653 173.148C247.525 176.239 250.405 177.805 254.084 177.805V174.805C251.409 174.805 249.524 173.749 248.219 171.594C246.841 169.318 246.053 165.71 246.053 160.567H243.053ZM254.084 177.805C257.334 177.805 261.124 176.743 265.404 174.759C269.699 172.769 274.584 169.805 280.051 165.896L278.306 163.456C272.93 167.3 268.212 170.151 264.142 172.037C260.057 173.93 256.721 174.805 254.084 174.805V177.805ZM280.678 164.676C280.678 147.291 280.416 132.056 279.89 118.974L276.893 119.094C277.416 132.126 277.678 147.319 277.678 164.676H280.678ZM279.891 119.034C279.891 117.787 279.648 116.619 279.121 115.565L276.438 116.907C276.727 117.485 276.891 118.182 276.891 119.034H279.891ZM279.121 115.565C278.579 114.482 277.746 113.595 276.688 112.889L275.024 115.385C275.714 115.846 276.163 116.358 276.438 116.907L279.121 115.565ZM276.728 112.917C275.865 112.3 275.039 111.79 274.253 111.397L272.912 114.08C273.525 114.387 274.215 114.809 274.984 115.358L276.728 112.917ZM274.388 111.473C273.533 110.929 272.376 110.532 271.029 110.226L270.364 113.152C271.583 113.429 272.35 113.732 272.777 114.004L274.388 111.473ZM271.092 110.242C269.813 109.893 268.807 109.659 268.152 109.586L267.821 112.568C268.215 112.612 269.016 112.785 270.302 113.136L271.092 110.242ZM268.312 109.613C267.763 109.491 266.869 109.312 265.644 109.079L265.083 112.026C266.306 112.259 267.161 112.43 267.661 112.541L268.312 109.613ZM266.818 110.189C266.591 109.277 266.513 108.727 266.513 108.454H263.513C263.513 109.114 263.67 109.962 263.908 110.916L266.818 110.189ZM266.513 108.454C266.513 108.248 266.586 107.737 266.818 106.807L263.908 106.079C263.674 107.014 263.513 107.843 263.513 108.454H266.513ZM265.278 107.94C267.319 108.057 269.389 108.174 271.488 108.29L271.654 105.295C269.557 105.178 267.488 105.062 265.449 104.945L265.278 107.94ZM271.49 108.29C273.648 108.407 275.342 108.495 276.571 108.553L276.714 105.557C275.495 105.499 273.808 105.411 271.652 105.295L271.49 108.29ZM276.571 108.553C277.815 108.612 278.976 108.642 280.053 108.642V105.642C279.031 105.642 277.918 105.614 276.714 105.557L276.571 108.553ZM280.053 108.642C280.959 108.642 282.005 108.612 283.188 108.553L283.038 105.557C281.89 105.614 280.895 105.642 280.053 105.642V108.642ZM283.188 108.553C284.36 108.494 285.939 108.407 287.923 108.29L287.747 105.295C285.766 105.412 284.198 105.499 283.038 105.557L283.188 108.553ZM287.92 108.29C289.963 108.173 291.918 108.057 293.787 107.94L293.599 104.946C291.737 105.062 289.787 105.179 287.749 105.295L287.92 108.29ZM292.921 107.729C293.144 107.863 293.269 107.965 293.332 108.028L295.453 105.907C295.166 105.62 294.825 105.373 294.465 105.157L292.921 107.729ZM293.722 108.309C293.702 108.299 293.67 108.279 293.638 108.247C293.605 108.214 293.585 108.183 293.575 108.163L296.259 106.821C295.997 106.298 295.587 105.888 295.063 105.626L293.722 108.309ZM293.856 108.553C293.917 108.613 293.95 108.651 293.964 108.67C293.971 108.678 293.97 108.678 293.964 108.668C293.958 108.66 293.944 108.637 293.925 108.6L296.609 107.258C296.44 106.921 296.184 106.637 295.978 106.431L293.856 108.553ZM294.206 108.99C294.166 108.95 294.135 108.914 294.112 108.886C294.089 108.857 294.071 108.832 294.057 108.812C294.03 108.773 294.013 108.743 294.005 108.729C293.996 108.713 293.992 108.704 293.992 108.704C293.991 108.703 293.993 108.707 293.997 108.717C294.006 108.738 294.02 108.773 294.04 108.825C294.059 108.876 294.081 108.94 294.106 109.016L296.952 108.067C296.888 107.875 296.822 107.692 296.755 107.535C296.721 107.457 296.679 107.365 296.627 107.272C296.587 107.2 296.49 107.031 296.328 106.869L294.206 108.99ZM294.136 109.098C294.253 109.39 294.361 109.646 294.45 109.824L297.133 108.483C297.106 108.428 297.038 108.276 296.922 107.984L294.136 109.098ZM294.308 108.934C293.83 112.16 293.592 115.527 293.592 119.034H296.592C296.592 115.662 296.821 112.443 297.275 109.373L294.308 108.934ZM293.593 118.973C293.243 127.551 293.067 134.54 293.067 139.931H296.067C296.067 134.597 296.241 127.654 296.591 119.095L293.593 118.973ZM293.067 139.931C293.067 142.744 293.126 147.448 293.242 154.035L296.242 153.982C296.125 147.396 296.067 142.715 296.067 139.931H293.067ZM293.242 154.035C293.359 160.616 293.417 166.378 293.417 171.322H296.417C296.417 166.356 296.359 160.575 296.242 153.982L293.242 154.035ZM294.166 172.62C297.811 174.73 303.71 175.935 311.616 176.404L311.794 173.409C303.962 172.945 298.669 171.76 295.669 170.023L294.166 172.62ZM310.234 175.201C310.38 175.928 310.488 176.478 310.56 176.851C310.596 177.039 310.622 177.177 310.638 177.269C310.647 177.316 310.651 177.343 310.653 177.357C310.655 177.364 310.654 177.359 310.652 177.347C310.651 177.341 310.65 177.326 310.648 177.306C310.647 177.292 310.642 177.244 310.642 177.18H313.642C313.642 177.072 313.63 176.981 313.629 176.975C313.625 176.944 313.621 176.915 313.618 176.894C313.61 176.849 313.601 176.796 313.592 176.741C313.572 176.629 313.543 176.476 313.506 176.285C313.432 175.9 313.322 175.342 313.176 174.612L310.234 175.201ZM310.642 177.18C310.642 177.169 310.643 177.194 310.632 177.267C310.621 177.336 310.603 177.43 310.574 177.554C310.515 177.802 310.42 178.129 310.282 178.542L313.128 179.49C313.413 178.634 313.642 177.805 313.642 177.18H310.642ZM311.563 177.523C300.417 178.584 290.41 181.006 281.559 184.808L282.743 187.564C291.264 183.904 300.959 181.546 311.847 180.509L311.563 177.523ZM282.736 184.804C281.369 184.226 280.757 183.628 280.52 183.154L277.837 184.496C278.533 185.888 279.902 186.863 281.567 187.567L282.736 184.804ZM280.678 183.825V170.185H277.678V183.825H280.678ZM278.2 169.048C272.424 174.015 266.993 177.948 261.907 180.862L263.398 183.465C268.688 180.434 274.274 176.381 280.156 171.322L278.2 169.048ZM261.912 180.86C256.979 183.662 252.044 185.036 247.089 185.036V188.036C252.626 188.036 258.067 186.495 263.394 183.468L261.912 180.86ZM247.089 185.036C240.703 185.036 236.532 183.25 234.124 180.04L231.724 181.84C234.912 186.091 240.184 188.036 247.089 188.036V185.036ZM234.133 180.052C231.669 176.697 230.254 171.219 230.139 163.343L227.14 163.387C227.258 171.483 228.699 177.721 231.715 181.828L234.133 180.052ZM230.139 163.341L229.44 119.01L226.44 119.058L227.14 163.388L230.139 163.341ZM229.434 118.904C229.311 117.482 229.021 116.202 228.418 115.256L225.888 116.866C226.101 117.202 226.336 117.905 226.446 119.164L229.434 118.904ZM228.495 115.39C227.995 114.39 227.169 113.569 226.149 112.889L224.485 115.385C225.214 115.872 225.612 116.333 225.811 116.732L228.495 115.39ZM226.189 112.917C225.326 112.3 224.5 111.79 223.714 111.397L222.373 114.08C222.986 114.387 223.676 114.809 224.445 115.358L226.189 112.917ZM223.799 111.443C222.912 110.925 221.754 110.533 220.403 110.226L219.738 113.152C220.952 113.428 221.776 113.736 222.288 114.034L223.799 111.443ZM220.465 110.242C219.187 109.893 218.18 109.659 217.526 109.586L217.194 112.568C217.589 112.612 218.389 112.785 219.676 113.136L220.465 110.242ZM217.685 109.613C217.129 109.489 216.2 109.31 214.918 109.077L214.381 112.028C215.664 112.261 216.541 112.432 217.035 112.541L217.685 109.613ZM216.105 110.189C215.877 109.277 215.8 108.727 215.8 108.454H212.8C212.8 109.114 212.956 109.962 213.194 110.916L216.105 110.189ZM215.8 108.454C215.8 108.248 215.872 107.737 216.105 106.807L213.194 106.079C212.96 107.014 212.8 107.843 212.8 108.454H215.8ZM306.253 58.2648L306.112 56.7714L305.055 56.871L304.797 57.9009L306.253 58.2648ZM335.806 51.0949L336.397 49.7162L335.802 49.4609L335.208 49.7196L335.806 51.0949ZM338.867 53.4557H340.367V53.1229L340.226 52.8214L338.867 53.4557ZM338.867 117.722H337.367V121.278L339.913 118.797L338.867 117.722ZM388.182 114.575L387.035 115.542L387.039 115.547L388.182 114.575ZM395.264 154.184L396.726 154.518L396.727 154.514L395.264 154.184ZM390.63 166.25L391.943 166.975L391.947 166.967L390.63 166.25ZM370.694 183.825L371.219 185.23L371.226 185.228L371.234 185.225L370.694 183.825ZM323.128 175.431L321.628 175.401L321.614 176.121L322.166 176.582L323.128 175.431ZM323.128 65.9593H324.628V65.1021L323.89 64.667L323.128 65.9593ZM306.253 62.3743L304.797 62.7381L305.065 63.8075L306.165 63.8718L306.253 62.3743ZM347.611 118.159L348.27 119.507L348.281 119.501L347.611 118.159ZM338.867 124.542L337.828 123.461L337.367 123.903V124.542H338.867ZM339.216 170.36L337.717 170.39L337.725 170.777L337.919 171.112L339.216 170.36ZM362.912 179.89L362.452 178.463L362.445 178.465L362.438 178.467L362.912 179.89ZM373.754 170.36L372.471 169.584L372.464 169.595L372.458 169.606L373.754 170.36ZM306.393 59.7581C317.655 58.6968 327.666 56.2752 336.405 52.4702L335.208 49.7196C326.81 53.3759 317.118 55.7342 306.112 56.7714L306.393 59.7581ZM335.216 52.4736C336.762 53.1364 337.342 53.7354 337.507 54.09L340.226 52.8214C339.575 51.4272 338.115 50.4523 336.397 49.7162L335.216 52.4736ZM337.367 53.4557V117.722H340.367V53.4557H337.367ZM339.913 118.797C348.774 110.165 357.542 106.019 366.235 106.019V103.019C356.508 103.019 347.03 107.676 337.82 116.648L339.913 118.797ZM366.235 106.019C374.782 106.019 381.673 109.185 387.035 115.542L389.328 113.607C383.381 106.557 375.642 103.019 366.235 103.019V106.019ZM387.039 115.547C392.4 121.847 395.163 130.472 395.163 141.593H398.163C398.163 129.979 395.271 120.592 389.324 113.603L387.039 115.547ZM395.163 141.593C395.163 145.737 394.709 149.824 393.801 153.854L396.727 154.514C397.684 150.266 398.163 145.959 398.163 141.593H395.163ZM393.802 153.85C392.902 157.786 391.409 161.68 389.312 165.533L391.947 166.967C394.165 162.892 395.761 158.742 396.726 154.518L393.802 153.85ZM389.317 165.525C387.233 169.299 384.675 172.614 381.643 175.477L383.703 177.658C386.967 174.576 389.713 171.012 391.943 166.975L389.317 165.525ZM381.643 175.477C378.662 178.293 374.846 180.617 370.154 182.426L371.234 185.225C376.219 183.303 380.388 180.789 383.703 177.658L381.643 175.477ZM370.169 182.42C365.521 184.156 360.339 185.036 354.606 185.036V188.036C360.647 188.036 366.191 187.108 371.219 185.23L370.169 182.42ZM354.606 185.036C349.005 185.036 343.548 184.103 338.227 182.235L337.233 185.066C342.871 187.045 348.664 188.036 354.606 188.036V185.036ZM338.227 182.235C332.909 180.368 328.201 177.715 324.09 174.28L322.166 176.582C326.566 180.259 331.592 183.085 337.233 185.066L338.227 182.235ZM324.628 175.461C324.745 169.672 324.803 155.607 324.803 133.286H321.803C321.803 155.617 321.744 169.648 321.628 175.401L324.628 175.461ZM324.803 133.286C324.803 124.015 324.774 111.393 324.715 95.4203L321.715 95.4312C321.774 111.402 321.803 124.02 321.803 133.286H324.803ZM324.715 95.4203C324.657 79.4471 324.628 69.6282 324.628 65.9593H321.628C321.628 69.635 321.657 79.4604 321.715 95.4312L324.715 95.4203ZM323.89 64.667C320.295 62.5486 314.356 61.3449 306.34 60.8769L306.165 63.8718C314.121 64.3364 319.433 65.5227 322.366 67.2516L323.89 64.667ZM307.708 62.0105C307.48 61.099 307.403 60.5485 307.403 60.2758H304.403C304.403 60.9358 304.559 61.7843 304.797 62.7381L307.708 62.0105ZM307.403 60.2758C307.403 60.0703 307.475 59.559 307.708 58.6286L304.797 57.9009C304.564 58.8359 304.403 59.6652 304.403 60.2758H307.403ZM357.841 114.474C353.748 114.474 350.1 115.238 346.94 116.818L348.281 119.501C350.95 118.167 354.122 117.474 357.841 117.474V114.474ZM346.951 116.812C343.921 118.296 340.881 120.527 337.828 123.461L339.906 125.624C342.798 122.845 345.588 120.821 348.27 119.507L346.951 116.812ZM337.367 124.542C337.367 143.434 337.483 158.717 337.717 170.39L340.716 170.33C340.483 158.686 340.367 143.424 340.367 124.542H337.367ZM337.919 171.112C342.22 178.53 348.875 182.265 357.666 182.265V179.265C349.902 179.265 344.257 176.063 340.514 169.607L337.919 171.112ZM357.666 182.265C359.584 182.265 361.493 181.945 363.386 181.313L362.438 178.467C360.834 179.002 359.245 179.265 357.666 179.265V182.265ZM363.373 181.318C365.411 180.661 367.469 179.438 369.549 177.726L367.642 175.41C365.758 176.962 364.028 177.954 362.452 178.463L363.373 181.318ZM369.549 177.726C371.685 175.967 373.516 173.754 375.051 171.114L372.458 169.606C371.078 171.978 369.47 173.905 367.642 175.41L369.549 177.726ZM375.038 171.136C376.665 168.445 377.964 164.898 378.975 160.557L376.053 159.877C375.082 164.046 373.875 167.261 372.471 169.584L375.038 171.136ZM378.975 160.557C379.997 156.167 380.501 151.212 380.501 145.702H377.501C377.501 151.035 377.013 155.756 376.053 159.877L378.975 160.557ZM380.501 145.702C380.501 139.978 379.756 134.83 378.238 130.276L375.392 131.225C376.788 135.415 377.501 140.234 377.501 145.702H380.501ZM378.238 130.276C376.7 125.664 374.19 121.867 370.697 118.934L368.768 121.232C371.803 123.779 374.015 127.094 375.392 131.225L378.238 130.276ZM370.697 118.934C367.136 115.946 362.821 114.474 357.841 114.474V117.474C362.187 117.474 365.8 118.741 368.768 121.232L370.697 118.934Z" fill="black"/>
<path d="M209.277 220.556H200.157V236H191.24V193.049H209.947C214.26 193.049 217.698 194.157 220.263 196.371C222.827 198.586 224.109 202.014 224.109 206.657C224.109 211.727 222.827 215.311 220.263 217.409C217.698 219.507 214.037 220.556 209.277 220.556ZM213.473 211.611C214.639 210.581 215.222 208.949 215.222 206.715C215.222 204.481 214.629 202.889 213.444 201.937C212.279 200.985 210.637 200.509 208.52 200.509H200.157V213.155H208.52C210.637 213.155 212.288 212.64 213.473 211.611ZM249.839 237.195C243.7 237.195 239.009 235.524 235.764 232.183C231.413 228.084 229.237 222.178 229.237 214.466C229.237 206.599 231.413 200.693 235.764 196.75C239.009 193.409 243.7 191.738 249.839 191.738C255.977 191.738 260.668 193.409 263.913 196.75C268.245 200.693 270.411 206.599 270.411 214.466C270.411 222.178 268.245 228.084 263.913 232.183C260.668 235.524 255.977 237.195 249.839 237.195ZM258.318 225.656C260.396 223.033 261.436 219.303 261.436 214.466C261.436 209.649 260.387 205.929 258.289 203.306C256.21 200.664 253.393 199.343 249.839 199.343C246.284 199.343 243.447 200.655 241.33 203.277C239.213 205.9 238.154 209.629 238.154 214.466C238.154 219.303 239.213 223.033 241.33 225.656C243.447 228.278 246.284 229.589 249.839 229.589C253.393 229.589 256.22 228.278 258.318 225.656ZM315.343 236H303.804L290.546 217.235L286.262 221.635V236H277.433V193.049H286.262V210.737L302.842 193.049H314.439L296.839 210.737L315.343 236ZM350.309 217.235H329.446V228.278H353.223V236H320.675V193.049H352.174V200.655H329.446V209.775H350.309V217.235ZM378.457 219.158H369.191V236H360.421V193.049H381.488C384.499 193.108 386.811 193.477 388.423 194.157C390.055 194.836 391.434 195.837 392.561 197.158C393.493 198.246 394.231 199.45 394.775 200.771C395.319 202.092 395.591 203.598 395.591 205.288C395.591 207.327 395.076 209.338 394.047 211.319C393.017 213.281 391.317 214.67 388.947 215.486C390.929 216.283 392.328 217.419 393.143 218.895C393.979 220.352 394.396 222.586 394.396 225.597V228.482C394.396 230.444 394.474 231.775 394.63 232.474C394.863 233.581 395.407 234.397 396.261 234.922V236H386.383C386.111 235.048 385.917 234.281 385.8 233.698C385.567 232.494 385.441 231.26 385.422 229.997L385.363 226.005C385.325 223.266 384.819 221.44 383.848 220.527C382.896 219.614 381.099 219.158 378.457 219.158ZM383.906 211.349C385.694 210.533 386.587 208.92 386.587 206.511C386.587 203.908 385.723 202.16 383.994 201.266C383.023 200.761 381.566 200.509 379.623 200.509H369.191V212.048H379.361C381.381 212.048 382.896 211.815 383.906 211.349Z" fill="black"/>
<circle cx="395.5" cy="181.5" r="6.13889" stroke="black" stroke-width="0.722222"/>
<path d="M392.49 183.179V179.846H391.245V179.147H394.518V179.846H393.308V183.179H392.49ZM395.006 183.179V179.147H396.281L397.014 181.924L397.752 179.147H399.027V183.179H398.25V179.965L397.378 183.179H396.64L395.774 179.965V183.179H395.006Z" fill="black"/>
<path d="M196.499 257.666C195.165 258.887 193.46 259.497 191.383 259.497C188.813 259.497 186.793 258.673 185.322 257.024C183.851 255.367 183.115 253.096 183.115 250.211C183.115 247.091 183.952 244.687 185.625 242.998C187.079 241.527 188.93 240.791 191.177 240.791C194.183 240.791 196.382 241.777 197.772 243.749C198.54 244.857 198.952 245.968 199.008 247.083H195.275C195.032 246.227 194.721 245.58 194.341 245.144C193.662 244.368 192.656 243.98 191.322 243.98C189.965 243.98 188.894 244.529 188.11 245.628C187.326 246.72 186.934 248.267 186.934 250.272C186.934 252.276 187.346 253.779 188.171 254.781C189.003 255.775 190.058 256.272 191.335 256.272C192.644 256.272 193.642 255.844 194.329 254.987C194.709 254.527 195.024 253.836 195.275 252.914H198.972C198.649 254.862 197.824 256.446 196.499 257.666ZM214.972 259V251.023H207.989V259H204.292V241.131H207.989V247.944H214.972V241.131H218.681V259H214.972ZM235.202 255.327H228.62L227.383 259H223.48L229.856 241.131H234.075L240.403 259H236.354L235.202 255.327ZM234.16 252.248L231.929 245.216L229.626 252.248H234.16ZM248.584 259H245.104V241.131H250.535L253.784 255.181L257.009 241.131H262.379V259H258.9V246.913C258.9 246.566 258.904 246.081 258.912 245.459C258.92 244.828 258.924 244.343 258.924 244.004L255.542 259H251.917L248.559 244.004C248.559 244.343 248.563 244.828 248.572 245.459C248.58 246.081 248.584 246.566 248.584 246.913V259ZM275.918 252.575H272.124V259H268.414V241.131H276.197C277.991 241.131 279.422 241.592 280.489 242.513C281.555 243.434 282.089 244.861 282.089 246.792C282.089 248.902 281.555 250.393 280.489 251.266C279.422 252.138 277.898 252.575 275.918 252.575ZM277.664 248.853C278.149 248.425 278.391 247.746 278.391 246.817C278.391 245.887 278.145 245.224 277.652 244.828C277.167 244.432 276.484 244.234 275.603 244.234H272.124V249.496H275.603C276.484 249.496 277.171 249.281 277.664 248.853ZM287.081 241.131H290.791V259H287.081V241.131ZM304.669 259.497C302.115 259.497 300.163 258.802 298.814 257.412C297.003 255.707 296.098 253.25 296.098 250.041C296.098 246.768 297.003 244.311 298.814 242.67C300.163 241.28 302.115 240.585 304.669 240.585C307.223 240.585 309.175 241.28 310.524 242.67C312.327 244.311 313.228 246.768 313.228 250.041C313.228 253.25 312.327 255.707 310.524 257.412C309.175 258.802 307.223 259.497 304.669 259.497ZM308.197 254.696C309.061 253.605 309.494 252.054 309.494 250.041C309.494 248.037 309.057 246.489 308.185 245.398C307.32 244.299 306.148 243.749 304.669 243.749C303.19 243.749 302.01 244.295 301.129 245.386C300.248 246.477 299.808 248.029 299.808 250.041C299.808 252.054 300.248 253.605 301.129 254.696C302.01 255.787 303.19 256.333 304.669 256.333C306.148 256.333 307.324 255.787 308.197 254.696ZM333.022 259H329.288L321.99 246.307V259H318.511V241.131H322.426L329.543 253.605V241.131H333.022V259ZM345.482 256.418C346.363 256.418 347.078 256.321 347.628 256.127C348.67 255.755 349.191 255.064 349.191 254.054C349.191 253.464 348.933 253.007 348.415 252.684C347.898 252.369 347.086 252.09 345.979 251.848L344.088 251.423C342.229 251.003 340.944 250.546 340.233 250.053C339.028 249.229 338.426 247.94 338.426 246.186C338.426 244.586 339.008 243.256 340.172 242.198C341.336 241.139 343.045 240.61 345.3 240.61C347.183 240.61 348.787 241.111 350.113 242.113C351.446 243.107 352.145 244.554 352.21 246.453H348.622C348.557 245.378 348.088 244.614 347.215 244.162C346.633 243.863 345.91 243.713 345.045 243.713C344.084 243.713 343.316 243.907 342.742 244.295C342.168 244.683 341.881 245.224 341.881 245.919C341.881 246.558 342.164 247.035 342.73 247.35C343.094 247.56 343.869 247.807 345.057 248.089L348.137 248.829C349.486 249.152 350.505 249.585 351.192 250.126C352.258 250.967 352.792 252.183 352.792 253.775C352.792 255.408 352.166 256.765 350.913 257.848C349.668 258.923 347.906 259.461 345.627 259.461C343.3 259.461 341.469 258.931 340.136 257.873C338.802 256.806 338.135 255.343 338.135 253.484H341.699C341.813 254.3 342.035 254.911 342.366 255.315C342.972 256.05 344.011 256.418 345.482 256.418ZM368.695 259V251.023H361.712V259H358.014V241.131H361.712V247.944H368.695V241.131H372.404V259H368.695ZM378.172 241.131H381.882V259H378.172V241.131ZM395.445 252.575H391.651V259H387.941V241.131H395.724C397.518 241.131 398.948 241.592 400.015 242.513C401.082 243.434 401.616 244.861 401.616 246.792C401.616 248.902 401.082 250.393 400.015 251.266C398.948 252.138 397.425 252.575 395.445 252.575ZM397.191 248.853C397.676 248.425 397.918 247.746 397.918 246.817C397.918 245.887 397.672 245.224 397.179 244.828C396.694 244.432 396.011 244.234 395.13 244.234H391.651V249.496H395.13C396.011 249.496 396.698 249.281 397.191 248.853Z" fill="black"/>
</svg>
